<svg xmlns="http://www.w3.org/2000/svg" version="1.1" xmlns:xlink="http://www.w3.org/1999/xlink" xmlns:svgjs="http://svgjs.dev/svgjs" width="2000" height="242" viewBox="0 0 2000 242"><g transform="matrix(1,0,0,1,-1.2121212121212466,-0.7790860356611944)"><svg viewBox="0 0 396 48" data-background-color="#ffffff" preserveAspectRatio="xMidYMid meet" height="242" width="2000" xmlns="http://www.w3.org/2000/svg" xmlns:xlink="http://www.w3.org/1999/xlink"><g id="tight-bounds" transform="matrix(1,0,0,1,0.2400000000000091,0.15452946161875047)"><svg viewBox="0 0 395.52 47.690941076762506" height="47.690941076762506" width="395.52"><g><svg viewBox="0 0 483.5276923237511 58.302717140966244" height="47.690941076762506" width="395.52"><g><rect width="5.231640995200424" height="58.302717140966244" x="69.08065605315686" y="0" fill="#000000" opacity="1" stroke-width="0" stroke="transparent" fill-opacity="1" class="rect-yte-0" data-fill-palette-color="primary" rx="1%" id="yte-0" data-palette-color="#111111"></rect></g><g transform="matrix(1,0,0,1,88.00769232375106,0.14503163467901814)"><svg viewBox="0 0 395.52000000000004 58.01265387160821" height="58.01265387160821" width="395.52000000000004"><g id="textblocktransform"><svg viewBox="0 0 395.52000000000004 58.01265387160821" height="58.01265387160821" width="395.52000000000004" id="textblock"><g><svg viewBox="0 0 395.52000000000004 58.01265387160821" height="58.01265387160821" width="395.52000000000004"><g transform="matrix(1,0,0,1,0,0)"><svg width="395.52000000000004" viewBox="2.98 -33.28 295.09 43.29" height="58.01265387160821" data-palette-color="#111111"><path d="M25.46-28.98Q26.29-28.98 26.65-28.6 27-28.22 27-27.32L27-27.32 27-18.12Q27-17.26 26.59-16.89 26.17-16.53 25.17-16.53L25.17-16.53Q24.17-16.53 23.75-16.89 23.34-17.26 23.34-18.12L23.34-18.12 23.34-25.66 16.82-25.66 16.82-3.32 22.58-3.32Q23.41-3.32 23.77-2.94 24.12-2.56 24.12-1.66L24.12-1.66Q24.12-0.76 23.77-0.38 23.41 0 22.58 0L22.58 0 7.4 0Q6.57 0 6.21-0.38 5.86-0.76 5.86-1.66L5.86-1.66Q5.86-2.56 6.21-2.94 6.57-3.32 7.4-3.32L7.4-3.32 13.16-3.32 13.16-25.66 6.64-25.66 6.64-18.12Q6.64-17.26 6.23-16.89 5.81-16.53 4.81-16.53L4.81-16.53Q3.81-16.53 3.39-16.89 2.98-17.26 2.98-18.12L2.98-18.12 2.98-27.32Q2.98-28.22 3.33-28.6 3.69-28.98 4.52-28.98L4.52-28.98 25.46-28.98ZM45.07-23.1Q49.66-23.1 51.95-21.04 54.25-18.99 54.25-14.97L54.25-14.97 54.25-5.25Q54.25-3.32 55.86-3.32L55.86-3.32 56.71-3.32Q57.54-3.32 57.9-2.94 58.25-2.56 58.25-1.66L58.25-1.66Q58.25-0.76 57.9-0.38 57.54 0 56.71 0L56.71 0 55.15 0Q53.56 0 52.43-0.79 51.29-1.59 50.95-3.13L50.95-3.13Q48.95-1.37 46.62-0.42 44.28 0.54 41.67 0.54L41.67 0.54Q39.21 0.54 37.31-0.31 35.42-1.15 34.35-2.76 33.27-4.37 33.27-6.59L33.27-6.59Q33.27-10.45 36.03-12.29 38.79-14.14 43.16-14.14L43.16-14.14Q47.04-14.14 50.58-12.89L50.58-12.89 50.58-14.97Q50.58-17.33 49.25-18.44 47.92-19.56 44.97-19.56L44.97-19.56Q43.14-19.56 41.16-19.04 39.18-18.53 37.4-17.63L37.4-17.63Q36.98-17.41 36.64-17.41L36.64-17.41Q35.84-17.41 35.3-18.58L35.3-18.58Q35.03-19.17 35.03-19.56L35.03-19.56Q35.03-20.41 35.94-20.87L35.94-20.87Q37.99-21.95 40.34-22.52 42.7-23.1 45.07-23.1L45.07-23.1ZM43.19-10.69Q40.38-10.69 38.75-9.73 37.13-8.76 37.13-6.67L37.13-6.67Q37.13-4.88 38.36-3.89 39.6-2.91 41.82-2.91L41.82-2.91Q46.68-2.91 50.58-6.93L50.58-6.93 50.58-9.59Q48.92-10.13 47.02-10.41 45.11-10.69 43.19-10.69L43.19-10.69ZM75.58-32.03Q76.41-32.03 76.77-31.65 77.12-31.27 77.12-30.37L77.12-30.37 77.12-3.32 84.96-3.32Q85.79-3.32 86.14-2.94 86.49-2.56 86.49-1.66L86.49-1.66Q86.49-0.76 86.14-0.38 85.79 0 84.96 0L84.96 0 65.82 0Q64.99 0 64.63-0.38 64.28-0.76 64.28-1.66L64.28-1.66Q64.28-2.56 64.63-2.94 64.99-3.32 65.82-3.32L65.82-3.32 73.46-3.32 73.46-28.71 66.79-28.71Q65.96-28.71 65.61-29.09 65.25-29.47 65.25-30.37L65.25-30.37Q65.25-31.27 65.61-31.65 65.96-32.03 66.79-32.03L66.79-32.03 75.58-32.03ZM103.58-23.1Q105.97-23.1 108-22.02 110.03-20.95 111.56-18.95L111.56-18.95 111.56-20.9Q111.56-21.8 111.92-22.18 112.27-22.56 113.1-22.56L113.1-22.56 116.98-22.56Q117.81-22.56 118.17-22.18 118.52-21.8 118.52-20.9L118.52-20.9Q118.52-20 118.17-19.62 117.81-19.24 116.98-19.24L116.98-19.24 114.98-19.24 114.98 0.73Q114.98 3.64 113.75 5.73 112.52 7.81 110.17 8.91 107.83 10.01 104.53 10.01L104.53 10.01Q102.19 10.01 99.8 9.61 97.4 9.2 95.33 8.45L95.33 8.45Q94.38 8.11 94.38 7.15L94.38 7.15Q94.38 6.76 94.57 6.18L94.57 6.18Q95.01 4.83 95.96 4.83L95.96 4.83Q96.23 4.83 96.5 4.93L96.5 4.93Q98.41 5.62 100.51 6.01 102.6 6.4 104.53 6.4L104.53 6.4Q107.9 6.4 109.61 4.8 111.32 3.2 111.32 0.42L111.32 0.42 111.32-4.49Q108.29-0.68 103.58-0.68L103.58-0.68Q100.55-0.68 98.16-2.04 95.77-3.39 94.4-5.93 93.03-8.47 93.03-11.89L93.03-11.89Q93.03-15.31 94.4-17.85 95.77-20.39 98.16-21.74 100.55-23.1 103.58-23.1L103.58-23.1ZM103.83-19.48Q101.65-19.48 100.09-18.52 98.53-17.55 97.71-15.83 96.89-14.11 96.89-11.89L96.89-11.89Q96.89-9.67 97.71-7.95 98.53-6.23 100.09-5.26 101.65-4.3 103.83-4.3L103.83-4.3Q106-4.3 107.7-5.2 109.39-6.1 110.36-7.82 111.32-9.55 111.32-11.89L111.32-11.89Q111.32-14.23 110.36-15.95 109.39-17.68 107.7-18.58 106-19.48 103.83-19.48L103.83-19.48ZM135-23.1Q139.59-23.1 141.88-21.04 144.18-18.99 144.18-14.97L144.18-14.97 144.18-5.25Q144.18-3.32 145.79-3.32L145.79-3.32 146.65-3.32Q147.48-3.32 147.83-2.94 148.18-2.56 148.18-1.66L148.18-1.66Q148.18-0.76 147.83-0.38 147.48 0 146.65 0L146.65 0 145.08 0Q143.5 0 142.36-0.79 141.23-1.59 140.88-3.13L140.88-3.13Q138.88-1.37 136.55-0.42 134.22 0.54 131.61 0.54L131.61 0.54Q129.14 0.54 127.25-0.31 125.36-1.15 124.28-2.76 123.21-4.37 123.21-6.59L123.21-6.59Q123.21-10.45 125.97-12.29 128.73-14.14 133.1-14.14L133.1-14.14Q136.98-14.14 140.52-12.89L140.52-12.89 140.52-14.97Q140.52-17.33 139.19-18.44 137.86-19.56 134.9-19.56L134.9-19.56Q133.07-19.56 131.09-19.04 129.12-18.53 127.33-17.63L127.33-17.63Q126.92-17.41 126.58-17.41L126.58-17.41Q125.77-17.41 125.23-18.58L125.23-18.58Q124.97-19.17 124.97-19.56L124.97-19.56Q124.97-20.41 125.87-20.87L125.87-20.87Q127.92-21.95 130.28-22.52 132.63-23.1 135-23.1L135-23.1ZM133.12-10.69Q130.31-10.69 128.69-9.73 127.07-8.76 127.07-6.67L127.07-6.67Q127.07-4.88 128.3-3.89 129.53-2.91 131.75-2.91L131.75-2.91Q136.61-2.91 140.52-6.93L140.52-6.93 140.52-9.59Q138.86-10.13 136.95-10.41 135.05-10.69 133.12-10.69L133.12-10.69ZM178.97-3.32Q179.8-3.32 180.15-2.94 180.51-2.56 180.51-1.66L180.51-1.66Q180.51-0.76 180.15-0.38 179.8 0 178.97 0L178.97 0 175.33 0Q174.5 0 174.15-0.38 173.79-0.76 173.79-1.66L173.79-1.66 173.79-16.11Q173.79-17.8 173.24-18.64 172.69-19.48 171.47-19.48L171.47-19.48Q170.32-19.48 169.35-18.42 168.37-17.36 167.8-15.47 167.22-13.57 167.22-11.16L167.22-11.16 167.22-3.32 168.62-3.32Q169.45-3.32 169.8-2.94 170.15-2.56 170.15-1.66L170.15-1.66Q170.15-0.76 169.8-0.38 169.45 0 168.62 0L168.62 0 165.1 0Q164.27 0 163.92-0.38 163.56-0.76 163.56-1.66L163.56-1.66 163.56-16.11Q163.56-17.8 163.01-18.64 162.46-19.48 161.24-19.48L161.24-19.48Q160.09-19.48 159.12-18.42 158.14-17.36 157.57-15.47 156.99-13.57 156.99-11.16L156.99-11.16 156.99-3.32 158.26-3.32Q159.09-3.32 159.45-2.94 159.8-2.56 159.8-1.66L159.8-1.66Q159.8-0.76 159.45-0.38 159.09 0 158.26 0L158.26 0 151.33 0Q150.5 0 150.15-0.38 149.79-0.76 149.79-1.66L149.79-1.66Q149.79-2.56 150.15-2.94 150.5-3.32 151.33-3.32L151.33-3.32 153.33-3.32 153.33-19.24 151.33-19.24Q150.5-19.24 150.15-19.62 149.79-20 149.79-20.9L149.79-20.9Q149.79-21.8 150.15-22.18 150.5-22.56 151.33-22.56L151.33-22.56 154.97-22.56Q155.8-22.56 156.15-22.18 156.51-21.8 156.51-20.9L156.51-20.9 156.51-18.48Q157.56-20.78 159.02-21.94 160.49-23.1 162.19-23.1L162.19-23.1Q163.85-23.1 165.1-21.97 166.34-20.85 166.78-18.68L166.78-18.68Q168.96-23.1 172.4-23.1L172.4-23.1Q173.84-23.1 174.98-22.38 176.11-21.66 176.78-20.18 177.45-18.7 177.45-16.55L177.45-16.55 177.45-3.32 178.97-3.32ZM195.08-23.1Q198.62-23.1 201.12-21.67 203.62-20.24 204.97-17.71 206.31-15.19 206.5-11.89L206.5-11.89Q206.5-11.06 206.15-10.72 205.8-10.38 204.97-10.38L204.97-10.38 187.29-10.38Q187.46-6.74 189.45-4.87 191.44-3 195.08-3L195.08-3Q197.32-3 199.52-3.58 201.72-4.15 203.38-5.1L203.38-5.1Q203.79-5.32 204.14-5.32L204.14-5.32Q204.99-5.32 205.53-4.03L205.53-4.03Q205.75-3.52 205.75-3.1L205.75-3.1Q205.75-2.12 204.67-1.59L204.67-1.59Q202.79-0.63 200.23-0.05 197.67 0.54 195.08 0.54L195.08 0.54Q191.39 0.54 188.78-0.88 186.17-2.29 184.8-4.96 183.43-7.62 183.43-11.28L183.43-11.28Q183.43-14.77 184.92-17.46 186.41-20.14 189.05-21.62 191.68-23.1 195.08-23.1L195.08-23.1ZM195.08-19.56Q192.07-19.56 190.11-18.03 188.14-16.5 187.53-13.79L187.53-13.79 202.45-13.79Q201.94-16.6 200.09-18.08 198.25-19.56 195.08-19.56L195.08-19.56ZM233.36-32.03Q234.19-32.03 234.54-31.65 234.89-31.27 234.89-30.37L234.89-30.37 234.89-3.32 236.9-3.32Q237.73-3.32 238.08-2.94 238.43-2.56 238.43-1.66L238.43-1.66Q238.43-0.76 238.08-0.38 237.73 0 236.9 0L236.9 0 233.01 0Q232.18 0 231.83-0.38 231.48-0.76 231.48-1.66L231.48-1.66 231.48-3.61Q229.94-1.61 227.91-0.54 225.89 0.54 223.49 0.54L223.49 0.54Q220.47 0.54 218.07-0.89 215.68-2.32 214.31-4.99 212.95-7.67 212.95-11.28L212.95-11.28Q212.95-14.89 214.31-17.57 215.68-20.24 218.07-21.67 220.47-23.1 223.49-23.1L223.49-23.1Q228.08-23.1 231.23-19.07L231.23-19.07 231.23-28.71 227.28-28.71Q226.45-28.71 226.09-29.09 225.74-29.47 225.74-30.37L225.74-30.37Q225.74-31.27 226.09-31.65 226.45-32.03 227.28-32.03L227.28-32.03 233.36-32.03ZM223.74-19.48Q221.56-19.48 220-18.44 218.44-17.41 217.62-15.55 216.8-13.7 216.8-11.28L216.8-11.28Q216.8-8.86 217.62-7.01 218.44-5.15 220-4.11 221.56-3.08 223.74-3.08L223.74-3.08Q225.91-3.08 227.61-4.05 229.3-5.03 230.27-6.88 231.23-8.74 231.23-11.28L231.23-11.28Q231.23-13.82 230.27-15.67 229.3-17.53 227.61-18.51 225.91-19.48 223.74-19.48L223.74-19.48ZM255.69-22.56Q256.52-22.56 256.88-22.18 257.23-21.8 257.23-20.9L257.23-20.9 257.23-3.32 265.07-3.32Q265.9-3.32 266.25-2.94 266.61-2.56 266.61-1.66L266.61-1.66Q266.61-0.76 266.25-0.38 265.9 0 265.07 0L265.07 0 245.93 0Q245.1 0 244.74-0.38 244.39-0.76 244.39-1.66L244.39-1.66Q244.39-2.56 244.74-2.94 245.1-3.32 245.93-3.32L245.93-3.32 253.57-3.32 253.57-19.24 247.39-19.24Q246.56-19.24 246.21-19.62 245.85-20 245.85-20.9L245.85-20.9Q245.85-21.8 246.21-22.18 246.56-22.56 247.39-22.56L247.39-22.56 255.69-22.56ZM254.91-33.28Q256.25-33.28 256.74-32.92 257.23-32.57 257.23-31.69L257.23-31.69 257.23-28.52Q257.23-27.64 256.74-27.28 256.25-26.93 254.91-26.93L254.91-26.93Q253.57-26.93 253.08-27.28 252.59-27.64 252.59-28.52L252.59-28.52 252.59-31.69Q252.59-32.57 253.08-32.92 253.57-33.28 254.91-33.28L254.91-33.28ZM284.89-23.1Q289.48-23.1 291.77-21.04 294.07-18.99 294.07-14.97L294.07-14.97 294.07-5.25Q294.07-3.32 295.68-3.32L295.68-3.32 296.54-3.32Q297.37-3.32 297.72-2.94 298.07-2.56 298.07-1.66L298.07-1.66Q298.07-0.76 297.72-0.38 297.37 0 296.54 0L296.54 0 294.97 0Q293.39 0 292.25-0.79 291.12-1.59 290.77-3.13L290.77-3.13Q288.77-1.37 286.44-0.42 284.11 0.54 281.5 0.54L281.5 0.54Q279.03 0.54 277.14-0.31 275.25-1.15 274.17-2.76 273.1-4.37 273.1-6.59L273.1-6.59Q273.1-10.45 275.86-12.29 278.62-14.14 282.99-14.14L282.99-14.14Q286.87-14.14 290.41-12.89L290.41-12.89 290.41-14.97Q290.41-17.33 289.08-18.44 287.75-19.56 284.79-19.56L284.79-19.56Q282.96-19.56 280.98-19.04 279.01-18.53 277.22-17.63L277.22-17.63Q276.81-17.41 276.47-17.41L276.47-17.41Q275.66-17.41 275.12-18.58L275.12-18.58Q274.86-19.17 274.86-19.56L274.86-19.56Q274.86-20.41 275.76-20.87L275.76-20.87Q277.81-21.95 280.17-22.52 282.52-23.1 284.89-23.1L284.89-23.1ZM283.01-10.69Q280.2-10.69 278.58-9.73 276.96-8.76 276.96-6.67L276.96-6.67Q276.96-4.88 278.19-3.89 279.42-2.91 281.64-2.91L281.64-2.91Q286.5-2.91 290.41-6.93L290.41-6.93 290.41-9.59Q288.75-10.13 286.84-10.41 284.94-10.69 283.01-10.69L283.01-10.69Z" opacity="1" transform="matrix(1,0,0,1,0,0)" fill="#000000" class="wordmark-text-0" data-fill-palette-color="primary" id="text-0"></path></svg></g></svg></g></svg></g></svg></g><g transform="matrix(1,0,0,1,0,0.14503163467901814)"><svg viewBox="0 0 55.38526077776308 58.01265387160821" height="58.01265387160821" width="55.38526077776308"><g><svg version="1.0" xmlns="http://www.w3.org/2000/svg" xmlns:xlink="http://www.w3.org/1999/xlink" x="0" y="0" viewBox="0 0 95.471 100" enable-background="new 0 0 95.471 100" xml:space="preserve" id="icon-0" width="55.38526077776308" height="58.01265387160821" class="icon-icon-0" data-fill-palette-color="accent"><path d="M47.735 0C47.652 2.825 45.997 13.412 27.936 30.934 10.554 47.797 2.439 49.824 0 50 2.439 50.178 10.554 52.204 27.936 69.066 45.997 86.589 47.652 97.177 47.735 100 47.818 97.177 49.474 86.589 67.533 69.066 84.917 52.204 93.031 50.178 95.471 50 93.032 49.824 84.917 47.797 67.533 30.934 49.475 13.412 47.819 2.825 47.735 0" fill="#000000" data-fill-palette-color="accent"></path></svg></g></svg></g></svg></g><defs></defs></svg><rect width="395.52" height="47.690941076762506" fill="none" stroke="none" visibility="hidden"></rect></g></svg></g></svg>